<?xml version="1.0" encoding="utf-8"?>
<!-- Generator: Adobe Illustrator 17.0.0, SVG Export Plug-In . SVG Version: 6.00 Build 0)  -->
<!DOCTYPE svg PUBLIC "-//W3C//DTD SVG 1.1//EN" "http://www.w3.org/Graphics/SVG/1.1/DTD/svg11.dtd">
<svg version="1.1" id="Layer_1" xmlns="http://www.w3.org/2000/svg" xmlns:xlink="http://www.w3.org/1999/xlink" x="0px" y="0px"
	 width="498.05px" height="498.05px" viewBox="0 0 498.05 498.05" enable-background="new 0 0 498.05 498.05" xml:space="preserve">
<path fill="#BF1500" d="M370.416,247.68c-85.248,50.628-170.52,101.27-256.796,152.509c40.792,32.75,85.101,43.555,134.917,30.531
	c-76.672,30.415-180.132-5.619-219.849-96.594c-44.143-101.112,10.839-208.209,107.19-241.15
	c54.325-18.573,107.195-11.196,154.521,20.338C337.253,144.533,364.58,189.605,370.416,247.68z M251.654,264.588
	c-11.466,2.347-20.343,3.651-28.93,6.012c-35.995,9.895-70.48,23.095-96.256,51.691c-15.951,17.696-24.731,38.176-18.144,63.403
	C155.814,345.567,202.73,305.926,251.654,264.588z M436.111,421.625c26.104,0.291,49.106-22.81,48.698-48.987
	c-0.401-25.736-20.895-48.787-49.877-48.777c-25.063,0.009-47.896,22.981-47.879,48.157
	C387.186,400.79,410.203,421.337,436.111,421.625z"/>
</svg>
