<?xml version="1.0" encoding="utf-8"?>
<!-- Generator: Adobe Illustrator 17.0.0, SVG Export Plug-In . SVG Version: 6.00 Build 0)  -->
<!DOCTYPE svg PUBLIC "-//W3C//DTD SVG 1.1//EN" "http://www.w3.org/Graphics/SVG/1.1/DTD/svg11.dtd">
<svg version="1.1" id="Layer_1" xmlns="http://www.w3.org/2000/svg" xmlns:xlink="http://www.w3.org/1999/xlink" x="0px" y="0px"
	 width="2045.455px" height="432.727px" viewBox="0 0 2045.455 432.727" enable-background="new 0 0 2045.455 432.727"
	 xml:space="preserve">
<path fill="#BF1500" d="M448.744,201.931c-85.248,50.628-170.52,101.27-256.796,152.509c40.792,32.75,85.101,43.555,134.917,30.531
	c-76.672,30.415-180.132-5.619-219.849-96.594c-44.143-101.112,10.839-208.209,107.19-241.15
	c54.325-18.573,107.195-11.196,154.521,20.338C415.58,98.784,442.908,143.856,448.744,201.931z M329.982,218.839
	c-11.466,2.347-20.343,3.651-28.93,6.012c-35.995,9.895-70.48,23.095-96.256,51.691c-15.951,17.696-24.731,38.176-18.144,63.403
	C234.142,299.818,281.058,260.177,329.982,218.839z M514.439,375.876c26.104,0.291,49.106-22.81,48.698-48.987
	c-0.401-25.736-20.895-48.787-49.877-48.777c-25.063,0.009-47.896,22.981-47.879,48.157
	C465.514,355.041,488.53,375.588,514.439,375.876z"/>
<g>
	<path fill="none" stroke="#000000" stroke-width="35" d="M753.512,324.032V100.351h112.061v20.654h-88.916v73.389h86.426v20.068
		h-86.426v88.916h88.916v20.654H753.512z"/>
	<path fill="none" stroke="#000000" stroke-width="35" d="M1094.683,329.745L931.491,180.918h-0.293v143.114h-23.145V97.86h11.124
		l163.339,183.251h0.293V100.351h23.145v229.394H1094.683z"/>
	<path fill="none" stroke="#000000" stroke-width="35" d="M1228.708,330.038h-7.178L1129.391,97.86h25.488l70.752,183.837h0.732
		l71.045-183.837h24.609L1228.708,330.038z"/>
	<path fill="none" stroke="#000000" stroke-width="35" d="M1561.374,210.946c0,10.646-1.369,20.947-4.102,30.908
		c-2.735,9.961-6.617,19.263-11.646,27.905c-5.031,8.643-11.085,16.53-18.164,23.657c-7.082,7.13-14.992,13.234-23.73,18.311
		c-8.741,5.079-18.164,9.009-28.271,11.792s-20.728,4.175-31.86,4.175c-11.33,0-22.119-1.392-32.373-4.175
		s-19.753-6.713-28.491-11.792c-8.741-5.076-16.677-11.181-23.804-18.311c-7.13-7.127-13.184-15.015-18.164-23.657
		s-8.84-17.944-11.572-27.905c-2.735-9.961-4.102-20.262-4.102-30.908c0-10.643,1.366-20.947,4.102-30.908
		c2.732-9.961,6.614-19.263,11.646-27.905c5.028-8.643,11.107-16.527,18.237-23.657c7.127-7.127,15.063-13.231,23.804-18.311
		c8.738-5.077,18.212-9.009,28.418-11.792c10.203-2.783,20.874-4.175,32.007-4.175s21.753,1.392,31.86,4.175
		s19.53,6.715,28.271,11.792c8.738,5.079,16.674,11.183,23.804,18.311c7.127,7.13,13.231,15.015,18.311,23.657
		c5.076,8.643,8.983,17.921,11.719,27.832C1560.004,189.878,1561.374,200.205,1561.374,210.946z M1538.229,210.946
		c0-13.085-2.492-25.415-7.478-36.987s-11.776-21.703-20.377-30.396c-8.602-8.69-18.643-15.575-30.126-20.654
		c-11.482-5.077-23.771-7.617-36.868-7.617c-13.488,0-26.021,2.442-37.603,7.324c-11.582,4.884-21.6,11.623-30.053,20.215
		c-8.455,8.595-15.076,18.727-19.864,30.396c-4.788,11.671-7.183,24.243-7.183,37.72c0,8.693,1.124,17.091,3.371,25.195
		c2.248,8.107,5.423,15.699,9.528,22.778c4.104,7.082,9.039,13.55,14.807,19.409c5.766,5.859,12.167,10.891,19.203,15.088
		c7.036,4.2,14.612,7.448,22.724,9.741c8.111,2.296,16.566,3.442,25.362,3.442c13.39,0,25.85-2.417,37.383-7.251
		c11.531-4.834,21.524-11.499,29.979-19.995c8.452-8.496,15.097-18.578,19.936-30.249
		C1535.81,237.437,1538.229,224.716,1538.229,210.946z"/>
	<path fill="none" stroke="#000000" stroke-width="35" d="M1818.454,210.946c0,15.527-2.809,30.201-8.423,44.018
		c-5.617,13.82-13.502,25.953-23.657,36.401l31.787,33.838h-26.367l-9.961-10.547c-1.271-1.366-2.49-2.659-3.662-3.882
		c-1.172-1.22-2.248-2.318-3.223-3.296c-0.978-0.975-2.051-2.051-3.223-3.223c-9.767,7.324-20.654,13.063-32.666,17.212
		s-24.807,6.226-38.379,6.226c-11.33,0-22.119-1.392-32.373-4.175s-19.753-6.713-28.491-11.792
		c-8.741-5.076-16.677-11.181-23.804-18.311c-7.13-7.127-13.184-15.015-18.164-23.657s-8.84-17.944-11.572-27.905
		c-2.735-9.961-4.102-20.262-4.102-30.908c0-10.643,1.366-20.947,4.102-30.908c2.732-9.961,6.614-19.263,11.646-27.905
		c5.028-8.643,11.107-16.527,18.237-23.657c7.127-7.127,15.063-13.231,23.804-18.311c8.738-5.077,18.212-9.009,28.418-11.792
		c10.203-2.783,20.874-4.175,32.007-4.175s21.753,1.392,31.86,4.175s19.53,6.715,28.271,11.792
		c8.738,5.079,16.674,11.183,23.804,18.311c7.127,7.13,13.231,15.015,18.311,23.657c5.076,8.643,8.983,17.921,11.719,27.832
		C1817.084,189.878,1818.454,200.205,1818.454,210.946z M1795.309,210.946c0-13.085-2.492-25.415-7.478-36.987
		s-11.776-21.703-20.377-30.396c-8.602-8.69-18.643-15.575-30.126-20.654c-11.482-5.077-23.771-7.617-36.868-7.617
		c-13.488,0-26.021,2.442-37.603,7.324c-11.582,4.884-21.6,11.623-30.053,20.215c-8.455,8.595-15.076,18.727-19.864,30.396
		c-4.788,11.671-7.183,24.243-7.183,37.72c0,8.693,1.121,17.091,3.369,25.195c2.245,8.107,5.42,15.699,9.521,22.778
		c4.102,7.082,9.031,13.55,14.795,19.409c5.761,5.859,12.158,10.891,19.189,15.088c7.031,4.2,14.598,7.448,22.705,9.741
		c8.104,2.296,16.553,3.442,25.342,3.442c10.643,0,20.728-1.611,30.249-4.834s18.237-7.713,26.147-13.477l-53.76-57.568h26.408
		l41.229,44.385c7.53-8.299,13.472-17.871,17.825-28.711C1793.132,235.555,1795.309,223.741,1795.309,210.946z"/>
</g>
</svg>
